<?xml version="1.0" encoding="UTF-8" standalone="no"?>
<!-- Created with Inkscape (http://www.inkscape.org/) -->

<svg
   xmlns:dc="http://purl.org/dc/elements/1.1/"
   xmlns:cc="http://creativecommons.org/ns#"
   xmlns:rdf="http://www.w3.org/1999/02/22-rdf-syntax-ns#"
   xmlns:svg="http://www.w3.org/2000/svg"
   xmlns="http://www.w3.org/2000/svg"
   xmlns:sodipodi="http://sodipodi.sourceforge.net/DTD/sodipodi-0.dtd"
   xmlns:inkscape="http://www.inkscape.org/namespaces/inkscape"
   width="210mm"
   height="297mm"
   viewBox="0 0 210 297"
   version="1.1"
   id="svg5533"
   sodipodi:docname="arm.svg"
   inkscape:version="0.92.4 (5da689c313, 2019-01-14)">
  <defs
     id="defs5527" />
  <sodipodi:namedview
     id="base"
     pagecolor="#ffffff"
     bordercolor="#666666"
     borderopacity="1.0"
     inkscape:pageopacity="0.0"
     inkscape:pageshadow="2"
     inkscape:zoom="1.5"
     inkscape:cx="420.96656"
     inkscape:cy="860.20877"
     inkscape:document-units="mm"
     inkscape:current-layer="layer1"
     showgrid="false"
     inkscape:window-width="1920"
     inkscape:window-height="1001"
     inkscape:window-x="-9"
     inkscape:window-y="-9"
     inkscape:window-maximized="1" />
  <metadata
     id="metadata5530">
    <rdf:RDF>
      <cc:Work
         rdf:about="">
        <dc:format>image/svg+xml</dc:format>
        <dc:type
           rdf:resource="http://purl.org/dc/dcmitype/StillImage" />
      </cc:Work>
    </rdf:RDF>
  </metadata>
  <g
     inkscape:label="Layer 1"
     inkscape:groupmode="layer"
     id="layer1">
    <path
       style="fill:none;fill-opacity:1;stroke:#ff0001;stroke-width:0.26199999;stroke-miterlimit:4;stroke-dasharray:none;stroke-opacity:1"
       d="m 4.8207748,29.784267 v 2.296501 H 1.0065376 v 16.753499 2.296501 h 3.8142372 v -2.296501 h 8.8950642 v 2.296501 h 3.813722 v -2.296501 h 8.899712 v 2.296501 h 3.814239 v -2.296501 h 8.899199 v 2.296501 h 3.814236 v -2.296501 h 8.899716 v 2.296501 h 3.81372 v -2.296501 h 6.549988 v -3.814755 h 2.286166 v -5.711796 h -2.269111 v -3.814754 h 2.269111 v -5.708695 h -8.836154 v 2.296501 h -3.81372 v -2.296501 h -8.899716 v 2.296501 h -3.814236 v -2.296501 h -8.899199 v 2.296501 h -3.814239 v -2.296501 h -8.899712 v 2.296501 h -3.813722 v -2.296501 z"
       id="rect5535"
       inkscape:connector-curvature="0" />
    <path
       style="fill:none;fill-opacity:1;stroke:#ff0001;stroke-width:0.26199999;stroke-miterlimit:4;stroke-dasharray:none;stroke-opacity:1"
       d="m 80.296774,4.30304 v 2.265495 h -5.71231 v -2.25516 h -3.81475 v 2.286167 5.677688 h -2.27015 v 3.814755 h 2.27015 v 5.711795 h -2.25981 v 3.814239 h 2.25981 v 5.29e-4 h 5.70869 v 2.266529 h 3.81476 v -2.266529 h 5.71179 v 2.255676 h 3.81475 V 25.58806 19.909853 h 2.26137 v -3.814754 h -2.26137 v -5.711796 h 2.25103 V 6.568548 h -2.25103 -5.70869 V 4.303054 Z m -0.002,9.466607 a 2.3238486,2.3238489 0 0 1 2.32389,2.323888 2.3238486,2.3238489 0 0 1 -2.32389,2.323888 2.3238486,2.3238489 0 0 1 -2.32337,-2.323888 2.3238486,2.3238489 0 0 1 2.32337,-2.323888 z"
       id="rect5698"
       inkscape:connector-curvature="0" />
    <path
       style="fill:none;fill-opacity:1;stroke:#ff0001;stroke-width:0.26199999;stroke-miterlimit:4;stroke-dasharray:none;stroke-opacity:1"
       d="m 5.6065626,56.622683 v 2.296501 h -3.814237 v 16.753499 2.296501 h 3.814237 v -2.296501 h 8.8950644 v 2.296501 h 3.813721 v -2.296501 h 8.899713 v 2.296501 H 31.0293 v -2.296501 h 8.899199 v 2.296501 h 3.814236 v -2.296501 h 8.899714 v 2.296501 h 3.81372 v -2.296501 h 6.54999 v -3.814755 h 2.28617 v -5.711796 h -2.26911 v -3.814754 h 2.26911 v -5.708695 h -8.83616 v 2.296501 h -3.81372 v -2.296501 h -8.899714 v 2.296501 H 39.928499 V 56.622683 H 31.0293 v 2.296501 h -3.814239 v -2.296501 h -8.899713 v 2.296501 h -3.813721 v -2.296501 z"
       id="rect5535-0"
       inkscape:connector-curvature="0" />
    <path
       style="fill:none;fill-opacity:1;stroke:#ff0001;stroke-width:0.26199999;stroke-miterlimit:4;stroke-dasharray:none;stroke-opacity:1"
       d="M 4.8047541,5.025572 V 7.322073 H 0.99051711 v 16.753499 2.296501 H 4.8047541 v -2.296501 h 8.8950649 v 2.296501 h 3.813721 v -2.296501 h 8.899713 v 2.296501 h 3.814239 v -2.296501 h 8.899199 v 2.296501 h 3.814236 v -2.296501 h 8.899714 v 2.296501 h 3.81372 v -2.296501 h 6.54999 v -3.814755 h 2.28617 v -5.711796 h -2.26911 v -3.814754 h 2.26911 V 5.025572 h -8.83616 v 2.296501 h -3.81372 V 5.025572 H 42.940927 V 7.322073 H 39.126691 V 5.025572 H 30.227492 V 7.322073 H 26.413253 V 5.025572 H 17.51354 V 7.322073 H 13.699819 V 5.025572 Z"
       id="rect5535-3"
       inkscape:connector-curvature="0" />
    <path
       style="fill:none;fill-opacity:1;stroke:#ff0001;stroke-width:0.26199999;stroke-miterlimit:4;stroke-dasharray:none;stroke-opacity:1"
       d="m 79.763875,32.040183 v 2.265495 h -5.71231 v -2.25516 h -3.81475 v 2.286167 5.677688 h -2.27015 v 3.814755 h 2.27015 v 5.711794 h -2.25981 v 3.81424 h 2.25981 v 5.3e-4 h 5.70869 v 2.26653 h 3.81476 v -2.26653 h 5.71179 v 2.25568 h 3.81475 v -2.28617 -5.67821 h 2.26137 v -3.81475 h -2.26137 v -5.711796 h 2.25103 v -3.814755 h -2.25103 -5.70869 v -2.265494 z m -0.002,9.466607 a 2.3238486,2.3238489 0 0 1 2.32389,2.323888 2.3238486,2.3238489 0 0 1 -2.32389,2.323884 2.3238486,2.3238489 0 0 1 -2.32337,-2.323884 2.3238486,2.3238489 0 0 1 2.32337,-2.323888 z"
       id="rect5698-2"
       inkscape:connector-curvature="0" />
    <path
       style="fill:none;fill-opacity:1;stroke:#ff0001;stroke-width:0.26199999;stroke-miterlimit:4;stroke-dasharray:none;stroke-opacity:1"
       d="m 80.35029,59.317049 v 2.265495 h -5.71231 v -2.25516 h -3.81475 v 2.286167 5.677688 h -2.27015 v 3.814756 h 2.27015 v 5.711795 h -2.25981 v 3.814239 h 2.25981 v 5.29e-4 h 5.70869 v 2.266529 h 3.81476 v -2.266529 h 5.71179 v 2.255676 h 3.81475 V 80.60207 74.923863 h 2.26137 v -3.814754 h -2.26137 v -5.711797 h 2.25103 v -3.814755 h -2.25103 -5.70869 v -2.265494 z m -0.002,9.466607 a 2.3238486,2.3238489 0 0 1 2.32389,2.323889 2.3238486,2.3238489 0 0 1 -2.32389,2.323888 2.3238486,2.3238489 0 0 1 -2.32337,-2.323888 2.3238486,2.3238489 0 0 1 2.32337,-2.323889 z"
       id="rect5698-4"
       inkscape:connector-curvature="0" />
    <g
       id="g6863"
       transform="translate(43.852474,-75.594491)">
      <path
         inkscape:connector-curvature="0"
         id="rect6572"
         d="m 57.001319,105.36773 v 2.24947 H 55.4841 v 1.53531 h -2.296501 v 5.71076 h 2.282031 v 3.81424 h -2.282031 v 5.74022 2.2965 h 3.81372 v -2.2965 h 8.899715 v 2.2965 h 3.814239 v -2.2965 h 8.899197 v 2.2965 h 3.814238 v -2.2965 h 8.896096 v 2.27531 h 3.814239 v -2.27531 h 8.885767 v 2.27531 h 3.81423 v -2.27531 h 8.88576 v 2.27531 h 3.81424 v -2.27531 h 8.88576 v 2.27169 h 3.81424 v -2.27169 h 8.8992 v 2.27169 h 3.81424 v -2.27169 h 8.89971 v 2.27169 h 3.81372 v -2.27169 h 8.8961 v 2.26084 h 3.81424 v -2.26084 h 6.51485 v -3.81424 h 2.2965 v -5.71076 h -2.28203 v -3.81424 h 2.28203 v -5.71076 h -8.81135 v 2.24947 h -3.81424 v -2.24947 h -8.8961 v 2.24947 h -3.81372 v -2.24947 h -8.89971 v 2.24947 h -3.81424 v -2.24947 h -8.8992 v 2.24947 h -3.81424 v -2.24947 h -8.88576 v 2.24947 h -3.81424 v -2.24947 h -8.88576 v 2.24947 h -3.81423 v -2.24947 h -8.885767 v 2.24947 h -3.814239 v -2.24947 h -8.896096 v 2.24947 H 78.61447 v -2.24947 h -8.899197 v 2.24947 h -3.814239 v -2.24947 z"
         style="fill:none;fill-opacity:1;stroke:#ff0001;stroke-width:0.26199999;stroke-miterlimit:4;stroke-dasharray:none;stroke-opacity:1" />
      <circle
         r="2.240907"
         transform="scale(-1,1)"
         cy="116.04098"
         cx="-154.7876"
         id="path6812"
         style="fill:none;fill-opacity:1;stroke:#ff0001;stroke-width:0.29338604;stroke-miterlimit:4;stroke-dasharray:none;stroke-opacity:1" />
      <circle
         r="2.240907"
         transform="scale(-1,1)"
         cy="116.04098"
         cx="-78.587601"
         id="path6812-7"
         style="fill:none;fill-opacity:1;stroke:#ff0001;stroke-width:0.29338604;stroke-miterlimit:4;stroke-dasharray:none;stroke-opacity:1" />
    </g>
    <path
       style="fill:none;fill-opacity:1;stroke:#ff0001;stroke-width:0.26199999;stroke-miterlimit:4;stroke-dasharray:none;stroke-opacity:1"
       d="m 100.43313,81.37884 v 2.24947 h -1.517222 v 1.53531 h -2.296502 v 5.710758 h 2.282032 v 3.81424 h -2.282032 v 5.740222 2.2965 h 3.813724 v -2.2965 h 8.89971 v 2.2965 h 3.81424 v -2.2965 h 8.8992 v 2.2965 h 3.81424 v -2.2965 h 8.89609 v 2.27531 h 3.81424 v -2.27531 h 8.88577 v 2.27531 h 3.81423 v -2.27531 h 8.88576 v 2.27531 h 3.81424 v -2.27531 h 8.88576 v 2.27169 h 3.81424 v -2.27169 h 8.8992 v 2.27169 h 3.81424 v -2.27169 h 8.89971 v 2.27169 h 3.81372 v -2.27169 h 8.8961 v 2.26084 h 3.81424 v -2.26084 h 6.51485 v -3.814242 h 2.2965 v -5.71076 h -2.28203 V 87.0896 h 2.28203 v -5.71076 h -8.81135 v 2.24947 h -3.81424 v -2.24947 h -8.8961 v 2.24947 H 198.284 v -2.24947 h -8.89971 v 2.24947 h -3.81424 v -2.24947 h -8.8992 v 2.24947 h -3.81424 v -2.24947 h -8.88576 v 2.24947 h -3.81424 v -2.24947 h -8.88576 v 2.24947 h -3.81423 v -2.24947 h -8.88577 v 2.24947 h -3.81424 v -2.24947 h -8.89609 v 2.24947 h -3.81424 v -2.24947 h -8.8992 v 2.24947 h -3.81424 v -2.24947 z"
       id="rect6572-8"
       inkscape:connector-curvature="0" />
    <path
       style="fill:none;fill-opacity:1;stroke:#ff0001;stroke-width:0.26199999;stroke-miterlimit:4;stroke-dasharray:none;stroke-opacity:1"
       d="m 100.47483,56.315639 v 2.249475 h -1.517218 v 1.53531 h -2.2965 v 5.71075 h 2.28203 v 3.81424 h -2.28203 v 5.74022 2.2965 h 3.813718 v -2.2965 h 8.89971 v 2.2965 h 3.81424 v -2.2965 h 8.8992 v 2.2965 h 3.81425 v -2.2965 h 8.89609 v 2.27531 h 3.81423 v -2.27531 h 8.88577 v 2.27531 h 3.81423 v -2.27531 h 8.88577 v 2.27531 h 3.81423 v -2.27531 h 8.88577 v 2.27169 h 3.81423 v -2.27169 h 8.8992 v 2.27169 h 3.81425 v -2.27169 h 8.8997 v 2.27169 h 3.81372 v -2.27169 h 8.8961 v 2.26084 h 3.81424 v -2.26084 h 6.51485 v -3.81424 h 2.2965 v -5.71076 h -2.28203 v -3.81423 h 2.28203 v -5.710765 h -8.81135 v 2.249475 h -3.81424 v -2.249475 h -8.8961 v 2.249475 h -3.81372 v -2.249475 h -8.8997 v 2.249475 h -3.81425 v -2.249475 h -8.8992 v 2.249475 h -3.81423 v -2.249475 h -8.88577 v 2.249475 h -3.81423 v -2.249475 h -8.88577 v 2.249475 h -3.81423 v -2.249475 h -8.88577 v 2.249475 h -3.81423 v -2.249475 h -8.89609 v 2.249475 h -3.81425 v -2.249475 h -8.8992 v 2.249475 h -3.81424 v -2.249475 z"
       id="rect6572-8-3"
       inkscape:connector-curvature="0" />
    <path
       style="fill:none;fill-opacity:1;stroke:#ff0001;stroke-width:0.26199999;stroke-miterlimit:4;stroke-dasharray:none;stroke-opacity:1"
       d="m 100.85379,3.1598847 v 2.24947 h -1.517216 v 1.5353102 h -2.296505 v 5.7107581 h 2.282035 v 3.81424 h -2.282035 v 5.74022 2.2965 h 3.813721 v -2.2965 h 8.89971 v 2.2965 h 3.81424 v -2.2965 h 8.8992 v 2.2965 h 3.81424 v -2.2965 h 8.89609 v 2.27531 h 3.81424 v -2.27531 h 8.88577 v 2.27531 h 3.81423 v -2.27531 h 8.88576 v 2.27531 h 3.81424 v -2.27531 h 8.88576 v 2.27169 h 3.81424 v -2.27169 h 8.8992 v 2.27169 h 3.81424 v -2.27169 h 8.89971 v 2.27169 h 3.81372 v -2.27169 h 8.8961 v 2.26084 h 3.81424 v -2.26084 h 6.51485 v -3.81424 h 2.2965 v -5.71076 h -2.28203 V 8.8706447 h 2.28203 v -5.71076 h -8.81135 v 2.24947 h -3.81424 v -2.24947 h -8.8961 v 2.24947 h -3.81372 v -2.24947 h -8.89971 v 2.24947 h -3.81424 v -2.24947 h -8.8992 v 2.24947 h -3.81424 v -2.24947 h -8.88576 v 2.24947 h -3.81424 v -2.24947 h -8.88576 v 2.24947 h -3.81423 v -2.24947 h -8.88577 v 2.24947 h -3.81424 v -2.24947 h -8.89609 v 2.24947 h -3.81424 v -2.24947 h -8.8992 v 2.24947 h -3.81424 v -2.24947 z"
       id="rect6572-8-7"
       inkscape:connector-curvature="0" />
  </g>
</svg>
