<?xml version="1.0" encoding="UTF-8" standalone="no"?>
<!-- Created with Inkscape (http://www.inkscape.org/) -->

<svg
   xmlns:dc="http://purl.org/dc/elements/1.1/"
   xmlns:cc="http://creativecommons.org/ns#"
   xmlns:rdf="http://www.w3.org/1999/02/22-rdf-syntax-ns#"
   xmlns:svg="http://www.w3.org/2000/svg"
   xmlns="http://www.w3.org/2000/svg"
   xmlns:sodipodi="http://sodipodi.sourceforge.net/DTD/sodipodi-0.dtd"
   xmlns:inkscape="http://www.inkscape.org/namespaces/inkscape"
   width="210mm"
   height="297mm"
   viewBox="0 0 210 297"
   version="1.1"
   id="svg9376"
   inkscape:version="0.92.4 (5da689c313, 2019-01-14)"
   sodipodi:docname="engraveandcut.svg">
  <defs
     id="defs9370" />
  <sodipodi:namedview
     id="base"
     pagecolor="#ffffff"
     bordercolor="#666666"
     borderopacity="1.0"
     inkscape:pageopacity="0.0"
     inkscape:pageshadow="2"
     inkscape:zoom="0.35"
     inkscape:cx="400"
     inkscape:cy="331.42857"
     inkscape:document-units="mm"
     inkscape:current-layer="layer1"
     showgrid="false"
     inkscape:window-width="1920"
     inkscape:window-height="1001"
     inkscape:window-x="-9"
     inkscape:window-y="-9"
     inkscape:window-maximized="1" />
  <metadata
     id="metadata9373">
    <rdf:RDF>
      <cc:Work
         rdf:about="">
        <dc:format>image/svg+xml</dc:format>
        <dc:type
           rdf:resource="http://purl.org/dc/dcmitype/StillImage" />
        <dc:title></dc:title>
      </cc:Work>
    </rdf:RDF>
  </metadata>
  <g
     inkscape:label="Layer 1"
     inkscape:groupmode="layer"
     id="layer1">
    <path
       inkscape:connector-curvature="0"
       style="fill:#000000;fill-opacity:1;stroke:#ff0001;stroke-width:0.26199999;stroke-miterlimit:4;stroke-dasharray:none;stroke-opacity:1"
       d="m -5.8119059,-223.99437 v 12.6995 h -2.26188 v 12.69948 h 2.26188 v 12.6995 h -2.26188 v 12.69947 h 2.26188 v 12.69949 h -2.26188 v 12.69948 h 2.26188 v 12.69949 h -2.26188 v 12.69947 h 2.26188 v 12.6995 h -2.26188 v 12.699469 h 2.26188 v 12.6995 h -2.26188 v 12.7 h 2.26188 v 12.69946 h -2.26188 v 12.69947 h 2.26188 v 12.6995 h -2.26188 v 12.69948 h 2.26188 v 12.69948 h -2.26188 v 12.69949 h 2.26188 v 12.69949 h -2.26188 v 12.69948 h 2.26188 v 12.69947 h -2.26188 v 12.6995 h 2.26188 v 12.69947 h -2.26188 v 12.6995 h 2.26188 v 12.69947 h -2.26188 v 12.699491 h 2.26188 v 12.69947 h -2.26188 v 12.6995 h 2.26188 v 12.69947 h -2.26188 v 12.7 h 2.26188 v 12.69947 h -2.26188 v 12.6995 h 2.26188 v 12.69947 h -2.26188 v 12.71604 H 22.684554 v -12.6995 h 2.26188 v -12.69947 h -2.26188 v -12.6995 h 2.26188 v -12.69947 h -2.26188 v -12.69947 h 2.26188 v -12.6995 h -2.26188 v -12.69947 h 2.26188 v -12.6995 h -2.26188 V 93.509769 h 2.26188 v -12.69947 h -2.26188 v -12.6995 h 2.26188 v -12.69947 h -2.26188 v -12.69949 h 2.26188 v -12.69947 h -2.26188 v -12.6995 h 2.26188 V 4.613399 h -2.26188 v -12.69949 h 2.26188 v -12.6995 h -2.26188 v -12.69946 h 2.26188 v -12.69948 h -2.26188 v -12.69949 h 2.26188 v -12.69947 h -2.26188 v -12.69949 h 2.26188 v -12.69947 h -2.26188 v -12.699499 h 2.26188 v -12.69947 h -2.26188 v -12.6995 h 2.26188 v -12.69948 h -2.26188 v -12.7 h 2.26188 v -12.6995 h -2.26188 v -12.69946 h 2.26188 v -12.6995 h -2.26188 v -12.69947 h 2.26188 v -12.71604 z"
       id="rect2815" />
    <path
       inkscape:connector-curvature="0"
       style="fill:#000000;fill-opacity:1;stroke:#ff0001;stroke-width:0.26199999;stroke-miterlimit:4;stroke-dasharray:none;stroke-opacity:1"
       d="m 55.704763,-236.71041 v 12.6995 h 2.26188 v 12.69947 h -2.26188 v 12.69951 h 2.26188 v 12.69946 h -2.26188 v 12.6995 h 2.26188 v 12.69947 h -2.26188 v 12.6995 h 2.26188 v 12.69947 h -2.26188 v 12.6995 h 2.26188 v 12.69947 h -2.26188 v 12.699499 h 2.26188 v 12.7 h -2.26188 v 12.69947 h 2.26188 v 12.69946 h -2.26188 v 12.69951 h 2.26188 v 12.69946 h -2.26188 v 12.6995 h 2.26188 v 12.69948 h -2.26188 v 12.69948 h 2.26188 v 12.69949 h -2.26188 v 12.69948 h 2.26188 v 12.69949 h -2.26188 v 12.69947 h 2.26188 v 12.69948 h -2.26188 v 12.69949 h 2.26188 v 12.69947 h -2.26188 v 12.699501 h 2.26188 v 12.69947 h -2.26188 v 12.6995 h 2.26188 v 12.7 h -2.26188 v 12.69947 h 2.26188 v 12.6995 h -2.26188 v 12.69947 h 2.26188 v 12.71603 H 27.208315 v -12.6995 h -2.261881 v -12.69947 h 2.261881 v -12.69949 h -2.261881 v -12.69947 h 2.261881 v -12.6995 h -2.261881 v -12.69947 h 2.261881 V 106.19324 H 24.946434 V 93.493739 h 2.261881 v -12.7 h -2.261881 v -12.6995 h 2.261881 v -12.69947 h -2.261881 v -12.6995 h 2.261881 v -12.69947 h -2.261881 v -12.69948 h 2.261881 V 4.596829 h -2.261881 v -12.69948 h 2.261881 v -12.69948 h -2.261881 v -12.6995 h 2.261881 v -12.69947 h -2.261881 v -12.69947 h 2.261881 v -12.69948 h -2.261881 v -12.69948 h 2.261881 v -12.69949 h -2.261881 v -12.699469 h 2.261881 v -12.6995 h -2.261881 v -12.69947 h 2.261881 v -12.69949 h -2.261881 v -12.69948 h 2.261881 v -12.7 h -2.261881 v -12.69949 h 2.261881 v -12.69949 h -2.261881 v -12.69949 h 2.261881 v -12.69947 h -2.261881 v -12.71604 z"
       id="rect2815-6" />
  </g>
</svg>
