<?xml version="1.0" encoding="UTF-8" standalone="no"?>
<!-- Created with Inkscape (http://www.inkscape.org/) -->

<svg
   xmlns:dc="http://purl.org/dc/elements/1.1/"
   xmlns:cc="http://creativecommons.org/ns#"
   xmlns:rdf="http://www.w3.org/1999/02/22-rdf-syntax-ns#"
   xmlns:svg="http://www.w3.org/2000/svg"
   xmlns="http://www.w3.org/2000/svg"
   xmlns:sodipodi="http://sodipodi.sourceforge.net/DTD/sodipodi-0.dtd"
   xmlns:inkscape="http://www.inkscape.org/namespaces/inkscape"
   width="210mm"
   height="297mm"
   viewBox="0 0 210 297"
   version="1.1"
   id="svg8"
   inkscape:version="0.92.4 (5da689c313, 2019-01-14)"
   sodipodi:docname="ez_flower_jewelry.svg">
  <defs
     id="defs2" />
  <sodipodi:namedview
     id="base"
     pagecolor="#ffffff"
     bordercolor="#666666"
     borderopacity="1.0"
     inkscape:pageopacity="0.0"
     inkscape:pageshadow="2"
     inkscape:zoom="0.7"
     inkscape:cx="0.45847109"
     inkscape:cy="502.64508"
     inkscape:document-units="mm"
     inkscape:current-layer="layer1"
     showgrid="false"
     inkscape:window-width="1920"
     inkscape:window-height="1001"
     inkscape:window-x="-9"
     inkscape:window-y="-9"
     inkscape:window-maximized="1" />
  <metadata
     id="metadata5">
    <rdf:RDF>
      <cc:Work
         rdf:about="">
        <dc:format>image/svg+xml</dc:format>
        <dc:type
           rdf:resource="http://purl.org/dc/dcmitype/StillImage" />
        <dc:title></dc:title>
      </cc:Work>
    </rdf:RDF>
  </metadata>
  <g
     inkscape:label="Layer 1"
     inkscape:groupmode="layer"
     id="layer1">
    <ellipse
       style="fill:none;fill-opacity:1;stroke:#ff0000;stroke-width:0.25670421;stroke-miterlimit:4;stroke-dasharray:none;stroke-opacity:1"
       id="path4520"
       cx="7.8537474"
       cy="7.6957321"
       r="6.2216477" />
    <ellipse
       style="fill:none;fill-opacity:1;stroke:#ff0000;stroke-width:0.10268169;stroke-miterlimit:4;stroke-dasharray:none;stroke-opacity:1"
       id="path4520-5"
       cx="17.699936"
       cy="3.9357271"
       r="2.4886591" />
    <ellipse
       style="fill:none;fill-opacity:1;stroke:#ff0000;stroke-width:0.10268169;stroke-miterlimit:4;stroke-dasharray:none;stroke-opacity:1"
       id="path4520-5-7"
       cx="17.705593"
       cy="11.47338"
       r="2.4886591" />
    <path
       id="rect4558-2-3"
       style="fill:none;fill-opacity:1;stroke:#ff0000;stroke-width:0.26199999;stroke-miterlimit:4;stroke-dasharray:none;stroke-opacity:1"
       d="m 2.1504351,41.803754 h 5.6388001 v 3.81 H 2.1504351 Z m 0,-3.810002 h 5.6388001 v 3.81 H 2.1504351 Z m 0,-3.810001 h 5.6388001 v 3.81 H 2.1504351 Z m 0,-3.809999 h 5.6388001 v 3.81 H 2.1504351 Z m 0,-3.81 h 5.6388001 v 3.81 H 2.1504351 Z m 5e-7,-3.809999 h 5.6388001 v 3.81 H 2.1504356 Z m 0,-3.81 h 5.6388001 v 3.81 H 2.1504356 Z m -5e-7,-3.809999 h 5.6388001 v 3.81 H 2.1504351 Z"
       inkscape:connector-curvature="0" />
    <path
       sodipodi:type="star"
       style="fill:none;fill-opacity:1;stroke:#ff0000;stroke-width:0.2140374;stroke-miterlimit:4;stroke-dasharray:none;stroke-opacity:1"
       id="path4638"
       sodipodi:sides="8"
       sodipodi:cx="38.297485"
       sodipodi:cy="27.270647"
       sodipodi:r1="9.4271717"
       sodipodi:r2="8.7095709"
       sodipodi:arg1="1.5707963"
       sodipodi:arg2="1.9634954"
       inkscape:flatsided="true"
       inkscape:rounded="0"
       inkscape:randomized="0"
       d="m 38.297486,36.697819 -6.666018,-2.761155 -2.761154,-6.666017 2.761154,-6.666017 6.666017,-2.761155 6.666017,2.761155 2.761155,6.666017 -2.761154,6.666017 z"
       transform="matrix(4.6726738,0,0,4.6714876,-131.33505,85.195821)" />
    <g
       id="g5849"
       style="stroke:#ff0000;stroke-width:1;stroke-miterlimit:4;stroke-dasharray:none;stroke-opacity:1"
       transform="matrix(-1,0,0,1,200.0981,75.379547)">
      <path
         id="path5249"
         style="fill:none;stroke:#ff0000;stroke-width:1;stroke-miterlimit:4;stroke-dasharray:none;stroke-opacity:1"
         d="m 157.29079,47.954752 a 3.175,3.175 0 1 0 -6.35,0 3.175,3.175 0 1 0 6.35,0 z"
         inkscape:connector-curvature="0" />
      <path
         d="m 149.25976,43.863103 c -2.94596,-0.93808 -5.51735,-2.794529 -9.90088,-4.958318 -4.16225,-2.054543 -7.75314,-3.298084 -14.26094,-5.519288 -2.66585,-0.909902 -4.12754,-1.405784 -5.34513,-1.644967 -0.74287,-0.145945 -1.37747,-0.192829 -1.96468,-0.137954 -0.56677,0.05297 -1.18324,0.209629 -1.85793,0.570071 -0.89426,0.477705 -1.66124,1.190175 -2.25407,1.872959 -0.45812,0.527606 -1.42464,1.729105 -2.04226,3.426434 -0.1902,0.522684 -0.69459,1.923282 -0.72102,4.880636 -0.012,1.345591 0.0849,2.468192 0.30376,3.398732 0.1659,0.705273 0.40121,1.292357 0.71174,1.790832 0.33077,0.530966 0.74624,0.961152 1.25762,1.324663 0.37466,0.266303 1.09552,0.706728 2.43371,1.132602 3.64288,1.159325 8.00064,0.981869 11.10969,0.715645 3.67996,-0.315093 7.74467,-0.93689 13.44222,-1.500267 3.26431,-0.322792 5.51376,-0.473049 7.61725,-0.719614 m 5.78644,-6.867472 c -4.03599,-8.609224 -5.95026,-16.336751 -8.08158,-22.143509 -0.82375,-2.244301 -1.72084,-4.320624 -2.82531,-5.994405 -0.60781,-0.921097 -1.32741,-1.793521 -2.19243,-2.48421 -0.69611,-0.555823 -1.4616,-0.974878 -2.31366,-1.233615 -0.94649,-0.287414 -1.92819,-0.354568 -2.91094,-0.260593 -1.47328,0.140883 -2.95182,0.644753 -4.27254,1.30832 -1.44795,0.727498 -2.86342,1.725935 -3.99288,2.888506 -0.7285,0.749848 -1.37452,1.605479 -1.82644,2.548927 -0.35553,0.74221 -0.58446,1.525032 -0.65207,2.346193 -0.0737,0.895509 0.0496,1.770486 0.32516,2.625593 0.37677,1.169008 1.03756,2.301293 1.87281,3.397858 1.37651,1.807184 3.27307,3.578067 5.35445,5.324211 4.73377,3.971317 11.16507,8.418724 17.19991,13.91203 m 8.94766,-0.764381 c 3.23376,-8.941515 7.34436,-15.759298 9.94329,-21.372354 1.00448,-2.169451 1.83832,-4.271963 2.24088,-6.236499 0.22153,-1.081096 0.32959,-2.206827 0.20633,-3.30688 -0.0992,-0.885253 -0.34417,-1.722847 -0.76371,-2.5083 -0.46604,-0.8725 -1.11272,-1.614159 -1.87408,-2.242613 -1.14139,-0.942147 -2.54316,-1.631347 -3.94626,-2.096022 -1.53828,-0.509439 -3.24517,-0.804322 -4.86588,-0.780915 -1.04535,0.01511 -2.10718,0.163317 -3.09385,0.510882 -0.77622,0.273431 -1.49164,0.665093 -2.12009,1.197917 -0.68536,0.581083 -1.21688,1.286988 -1.62665,2.086506 -0.56021,1.093036 -0.89361,2.360933 -1.07838,3.726932 -0.30453,2.251207 -0.21566,4.844476 0.0214,7.550952 0.53913,6.155425 1.94196,13.847815 2.32487,21.999469 m 6.86746,5.786438 c 8.60922,-4.035981 16.33675,-5.950268 22.1435,-8.081566 2.24431,-0.823754 4.32063,-1.72085 5.99441,-2.825327 0.9211,-0.607801 1.79352,-1.327414 2.48421,-2.192417 0.55582,-0.696118 0.97488,-1.461611 1.23362,-2.313675 0.28741,-0.946468 0.35457,-1.928178 0.26059,-2.910946 -0.14088,-1.473279 -0.64475,-2.951798 -1.30832,-4.272518 -0.7275,-1.447959 -1.72594,-2.863427 -2.8885,-3.992907 -0.74985,-0.728477 -1.60549,-1.37451 -2.54893,-1.826418 -0.74222,-0.355521 -1.52505,-0.584465 -2.34619,-0.652066 -0.89551,-0.07374 -1.7705,0.04956 -2.6256,0.325146 -1.16902,0.376767 -2.3013,1.037564 -3.39787,1.872827 -1.80717,1.376495 -3.57805,3.273055 -5.32419,5.354426 -3.97133,4.733793 -8.41872,11.165073 -13.91205,17.199928 m 0.7644,8.947652 c 8.94151,3.233764 15.75929,7.344357 21.37236,9.94328 2.16944,1.004491 4.27196,1.838325 6.23649,2.240889 1.08109,0.221535 2.20682,0.329591 3.30687,0.206322 0.88526,-0.09919 1.72285,-0.344144 2.5083,-0.763694 0.87251,-0.466037 1.61416,-1.112731 2.24262,-1.874096 0.94215,-1.141386 1.63135,-2.543149 2.09602,-3.946261 0.50944,-1.538261 0.80432,-3.245141 0.78092,-4.865872 -0.0151,-1.045343 -0.16332,-2.107168 -0.51088,-3.093853 -0.27343,-0.776208 -0.6651,-1.491641 -1.19792,-2.120079 -0.58109,-0.685377 -1.28699,-1.216899 -2.08651,-1.626659 -1.09304,-0.560202 -2.36093,-0.893604 -3.72693,-1.078389 -2.25121,-0.304508 -4.84447,-0.215635 -7.55094,0.02143 -6.15544,0.539141 -13.84783,1.941962 -21.99948,2.324867 m -5.78644,6.867446 c 4.03599,8.609224 5.95026,16.33675 8.08158,22.143482 0.82375,2.244328 1.72084,4.320645 2.82531,5.994426 0.60781,0.921094 1.32741,1.793507 2.19243,2.484197 0.69611,0.55584 1.4616,0.97489 2.31365,1.23362 0.9465,0.28742 1.9282,0.35457 2.91095,0.26059 1.47328,-0.14086 2.95182,-0.64474 4.27254,-1.30831 1.44795,-0.7275 2.86342,-1.725931 3.99288,-2.888511 0.7285,-0.749855 1.37452,-1.605465 1.82644,-2.548916 0.35553,-0.742236 0.58446,-1.525058 0.65207,-2.346193 0.0737,-0.895508 -0.0496,-1.770512 -0.32516,-2.625592 -0.37677,-1.169035 -1.03756,-2.30132 -1.87281,-3.397885 -1.37652,-1.807156 -3.27307,-3.578038 -5.35445,-5.324182 -4.73378,-3.971343 -11.16508,-8.418725 -17.19992,-13.912057 m -8.94766,0.764408 c -2.49515,4.981152 -9.3164,19.999457 -10.99968,24.228901 -0.70048,1.760035 -1.18156,3.216672 -1.38227,4.526122 -0.13084,0.853625 -0.15078,1.702964 0.0133,2.55344 0.1159,0.600635 0.36346,1.438695 1.0002,2.399475 0.6763,1.02048 1.6044,1.89058 2.61939,2.58247 1.26226,0.86043 2.81022,1.54834 4.54274,1.90534 1.61252,0.33227 3.20134,0.34103 4.62809,0.10025 1.05543,-0.17811 2.10735,-0.50776 3.04249,-1.02293 0.69775,-0.38438 1.32749,-0.87082 1.84849,-1.47804 0.57311,-0.66791 0.9678,-1.42576 1.24112,-2.26221 0.47555,-1.4554 0.62854,-3.285678 0.58193,-5.685475 -0.12696,-6.535896 -2.29254,-24.660384 -2.50371,-26.376418 m -6.86746,-5.786438 c -8.60922,4.035981 -16.33675,5.950241 -22.1435,8.081566 -2.24431,0.823754 -4.32063,1.72085 -5.99441,2.825326 -0.9211,0.607801 -1.79352,1.327389 -2.48421,2.192417 -0.55582,0.696119 -0.97488,1.461612 -1.23362,2.313649 -0.28741,0.946494 -0.35457,1.928204 -0.26059,2.910946 0.14088,1.473279 0.64475,2.951824 1.30832,4.272545 0.7275,1.447958 1.72594,2.863426 2.8885,3.99288 0.74985,0.728503 1.60548,1.37451 2.54893,1.826445 0.74222,0.355521 1.52504,0.584464 2.34619,0.652066 0.89551,0.07374 1.7705,-0.04956 2.6256,-0.325173 1.16901,-0.376767 2.3013,-1.037537 3.39787,-1.872801 1.80717,-1.376521 3.57805,-3.273054 5.32419,-5.354452 3.97133,-4.733766 8.41872,-11.165073 13.91205,-17.199901"
         style="fill:none;stroke:#ff0000;stroke-width:1;stroke-miterlimit:4;stroke-dasharray:none;stroke-opacity:1"
         id="path5265"
         inkscape:connector-curvature="0" />
    </g>
    <path
       inkscape:connector-curvature="0"
       id="path5945"
       style="fill:none;stroke:#ff0000;stroke-width:1;stroke-miterlimit:4;stroke-dasharray:none;stroke-opacity:1"
       d="m 45.365591,50.002059 c -1.43953,4.52823 -1.84067,5.87973 -2.43334,8.10151 -1.54979,5.80983 -2.13551,10.11127 -3.17341,13.78366 -0.44101,1.5604 -0.96569,3.01921 -1.65855,4.217 -0.39063,0.67533 -0.86422,1.31795 -1.44844,1.83775 -0.47727,0.42465 -1.01058,0.75189 -1.61279,0.96626 -0.66935,0.23823 -1.37144,0.31805 -2.07991,0.28797 -0.96811,-0.0411 -1.95132,-0.28816 -2.86044,-0.61608 -1.01545,-0.36629 -1.97663,-0.84749 -2.77529,-1.30165 m 23.69929,4.41682 c -0.59858,-0.038 -1.19192,-0.14478 -1.7535,-0.35829 -0.5711,-0.21715 -1.07519,-0.53147 -1.52004,-0.95018 -0.56725,-0.5339 -0.99431,-1.19729 -1.32284,-1.901 -0.73978,-1.58459 -1.12079,-3.67207 -1.28752,-6.03012 -0.32222,-4.55689 0.17511,-9.89394 0.3252,-14.92745 0.0824,-2.76463 0.0844,-3.96946 -0.0984,-7.5262 m 6.13751,37.18404 -0.48038,-5.4908 m 5.541048,5.04804 -5.060668,0.44276 m 4.557678,-6.19194 0.50299,5.74918 m -7.032598,-37.79427 c 2.19587,4.2427 2.87242,5.48994 4.035618,7.49694 3.0004,5.17689 5.62436,8.63111 7.48156,11.95459 0.78965,1.41309 1.44829,2.81353 1.80402,4.14848 0.20071,0.75322 0.3196,1.54183 0.27355,2.3218 -0.0376,0.63783 -0.18388,1.24627 -0.45867,1.82351 -0.30555,0.64185 -0.74635,1.19472 -1.26924,1.67431 -0.71454,0.65534 -1.58537,1.17567 -2.4608,1.58641 -0.97515,0.45755 -1.9926,0.796 -2.87643,1.03905 m 19.88109,-13.63477 c -0.45097,0.39711 -0.94698,0.74168 -1.49622,0.98787 -0.55781,0.25003 -1.1369,0.38378 -1.74783,0.40177 -0.77936,0.023 -1.5511,-0.14504 -2.28147,-0.41111 -1.62901,-0.59346 -3.35836,-1.78506 -5.12817,-3.3165 -3.46736,-3.00032 -6.9083,-7.15182 -10.38135,-10.83686 -1.888478,-2.00374 -2.736978,-2.85477 -5.375658,-5.23549 m 30.632959,21.95322 -4.222261,-3.5429 m 7.487622,-0.34862 -3.265361,3.89152 m -1.155591,-7.60114 4.420952,3.70962 m -31.6974,-21.75179 c 4.528238,1.43954 5.879728,1.84068 8.101508,2.43334 5.80982,1.5498 10.11127,2.13551 13.78366,3.17342 1.5604,0.441 3.01921,0.96567 4.217021,1.65854 0.675312,0.39063 1.317942,0.86421 1.837737,1.44843 0.42464,0.47728 0.751898,1.0106 0.966242,1.6128 0.238242,0.66934 0.318061,1.37144 0.287989,2.07991 -0.04109,0.96811 -0.288171,1.95133 -0.616096,2.86044 -0.366281,1.01544 -0.847479,1.97662 -1.301633,2.77529 m 4.416806,-23.69928 c -0.03801,0.59857 -0.144778,1.19189 -0.358299,1.7535 -0.217141,0.57107 -0.531461,1.07519 -0.950164,1.52003 -0.533908,0.56724 -1.1973,0.9943 -1.901012,1.32284 -1.584579,0.73977 -3.672061,1.1208 -6.030111,1.28754 -4.55688,0.32221 -9.89392,-0.17513 -14.92744,-0.32523 -2.76464,-0.0824 -3.96945,-0.0844 -7.526208,0.0984 m 37.184037,-6.13752 -5.490803,0.48041 m 5.048051,-5.54106 0.442752,5.06065 m -6.191936,-4.55766 5.749184,-0.50299 m -37.794275,7.03259 c 4.242698,-2.19588 5.489938,-2.87242 7.496938,-4.03563 5.17688,-3.00038 8.6311,-5.62436 11.95459,-7.48155 1.41309,-0.78965 2.81352,-1.4483 4.14848,-1.80401 0.75322,-0.20071 1.54184,-0.31961 2.32181,-0.27357 0.637818,0.0377 1.246259,0.18391 1.823503,0.45868 0.641863,0.30556 1.194731,0.74636 1.674299,1.26923 0.655341,0.71456 1.175681,1.58538 1.586436,2.46081 0.457539,0.97515 0.795986,1.9926 1.039035,2.87644 M 69.089429,14.682659 c 0.39711,0.45099 0.74168,0.94697 0.98788,1.49622 0.25004,0.55782 0.38379,1.13692 0.40177,1.74784 0.0229,0.77936 -0.14504,1.55109 -0.41111,2.28148 -0.59345,1.62901 -1.78506,3.35835 -3.31648,5.12815 -3.00034,3.46737 -7.15185,6.90833 -10.83687,10.38138 -2.00373,1.88846 -2.854778,2.73695 -5.235498,5.37564 m 21.953208,-30.632961 -3.5429,4.222251 m -0.3486,-7.4876103 3.8915,3.2653593 m -7.60112,1.155591 3.70962,-4.4209503 M 46.989031,38.892439 c 1.43954,-4.52824 1.84067,-5.87973 2.43334,-8.10152 1.5498,-5.80983 2.13552,-10.11126 3.17342,-13.78365 0.441,-1.56041 0.965678,-3.01922 1.658548,-4.21704 0.39062,-0.67529 0.86421,-1.31793 1.44843,-1.837731 0.47727,-0.42464 1.01059,-0.751899 1.6128,-0.9662393 0.66934,-0.23824 1.37143,-0.31806 2.0799,-0.28799 0.96812,0.0411 1.95133,0.28817 2.86044,0.6161003 1.01545,0.366279 1.97663,0.847469 2.7753,1.30163 m -18.042178,27.27644 c -0.1824,-3.54926 -0.1806,-4.75102 -0.0991,-7.50322 0.14989,-5.06153 0.65233,-10.43019 0.32209,-15.00356 -0.16856,-2.33432 -0.5488,-4.39975 -1.28105,-5.971271 -0.32831,-0.7045893 -0.75524,-1.3690693 -1.32254,-1.9039393 -0.44471,-0.41928 -0.94876,-0.73418 -1.51999,-0.95181 -0.56247,-0.21428 -1.15686,-0.32136 -1.75653,-0.35945 m -0.48038,-5.4908 0.48038,5.4908 m -5.54105,-5.04805 5.06067,-0.44275 m -4.55768,6.19193 -0.50299,-5.74918 m 0.50299,5.74918 c -0.88588,0.24361 -1.9058,0.58301 -2.88283,1.04204 -0.87472,0.41097 -1.74466,0.93149 -2.45828,1.5869893 -0.52223,0.4797 -0.96224,1.032601 -1.26708,1.674351 -0.27426,0.5774 -0.41997,1.18592 -0.45718,1.82367 -0.0456,0.78065 0.074,1.56993 0.27528,2.32368 0.35705,1.33688 1.01758,2.73944 1.80911,4.15464 1.86286,3.33068 4.49028,6.78643 7.50258,11.99047 1.15195,1.99012 1.82396,3.2294 4.008,7.44927 m -26.41069,-18.41032 c 0.45096,-0.39711 0.94697,-0.74168 1.49622,-0.98788 0.5578,-0.25005 1.13689,-0.3838 1.74783,-0.40177 0.77936,-0.023 1.55109,0.14505 2.28146,0.41111 1.62901,0.59344 3.35837,1.78507 5.12817,3.31648 3.46737,3.00034 6.90831,7.15184 10.38136,10.83688 1.88847,2.00372 2.73698,2.85478 5.37565,5.2355 m -30.63296,-21.95322 4.22227,3.5429 m -7.4876304,0.34861 3.2653604,-3.89151 m 1.15559,7.60113 -4.4209504,-3.70962 m 31.6973804,21.7518 c -4.52823,-1.43955 -5.87973,-1.84068 -8.10151,-2.43335 -5.80982,-1.5498 -10.11127,-2.1355 -13.78365,-3.17341 -1.56041,-0.44101 -3.01922,-0.9657 -4.21703,-1.65854 -0.67531,-0.39063 -1.31794,-0.86424 -1.83773,-1.44844 -0.42465,-0.47728 -0.7519,-1.0106 -0.96625,-1.61282 -0.23824,-0.66934 -0.31806,-1.37141 -0.28799,-2.07989 0.0411,-0.96811 0.28818,-1.95133 0.6161,-2.86043 0.36628,-1.01545 0.84748,-1.97665 1.30163,-2.7753 m -4.4168004,23.69929 c 0.038,-0.59913 0.14497,-1.19301 0.35888,-1.75504 0.2173903,-0.57115 0.5320003,-1.07524 0.9510004,-1.52 0.5344,-0.5673 1.19834,-0.99428 1.9025,-1.32271 1.57806,-0.73599 3.65452,-1.11662 6.0007,-1.28429 4.56513,-0.3262 9.91795,0.17368 14.96545,0.32367 2.75841,0.082 3.9617,0.0839 7.5147,-0.0987 m -37.1840404,6.13749 5.49081,-0.48038 m -5.04805,5.54106 -0.44276,-5.06068 m 6.1919403,4.55768 -5.7491803,0.503 m 37.7942704,-7.0326 c -4.23116,2.1899 -5.47439,2.86414 -7.47286,4.02167 -5.19056,3.00638 -8.64558,5.6321 -11.9727,7.49218 -1.41416,0.7906 -2.81566,1.45018 -4.1516,1.80657 -0.75348,0.20103 -1.54244,0.32023 -2.32275,0.27443 -0.63779,-0.0374 -1.24627,-0.18338 -1.82358,-0.45792 -0.64181,-0.30519 -1.1947,-0.74557 -1.67433,-1.26814 -0.65542,-0.71406 -1.17586,-1.58446 -1.58672,-2.45952 -0.45829,-0.9761 -0.7972201,-1.9948 -1.0405501,-2.87967 m 13.6347801,19.88108 c -0.39711,-0.45095 -0.74168,-0.94697 -0.98788,-1.49622 -0.25004,-0.55779 -0.38379,-1.13688 -0.40177,-1.74781 -0.0229,-0.77935 0.14504,-1.55109 0.41112,-2.28147 0.59344,-1.62902 1.78505,-3.35836 3.31648,-5.12816 3.00033,-3.46739 7.15184,-6.90832 10.83686,-10.38137 2.00374,-1.88847 2.85478,-2.73699 5.2355,-5.37565 m -21.95321,30.63296 3.5429,-4.22228 m 0.34861,7.48763 -3.89151,-3.26535 m 7.60113,-1.1556 -3.70962,4.42095" />
    <path
       id="path6536-7"
       style="fill:none;stroke:#ff0000;stroke-width:1;stroke-miterlimit:4;stroke-dasharray:none;stroke-opacity:1"
       d="m 94.337965,195.86441 v -4.18852 h 2.83539 v 11.86727 h -5.50664 v 4.79921 h 9.143985 v -7.69336 h 9.14401 v 7.69336 h 9.14399 v -7.69336 h 9.144 v 7.69336 h 9.144 v -7.69336 h 9.144 v -33.16935 h -9.144 v 7.66176 h -9.144 v -7.66176 h -9.144 v 7.66176 h -9.14399 v -7.66176 h -9.14401 v 7.66176 h -9.143985 v 4.24794 h 4.27048 v 6.03437 h -4.27048 v 10.44068 z m -1e-5,66.4019 v -4.18852 h 2.83539 v 11.86727 h -5.50664 v 4.79921 h 9.143995 v -7.69336 h 9.14401 v 7.69336 h 9.14399 v -7.69336 h 9.144 v 7.69336 h 9.144 v -7.69336 h 9.144 v -33.16935 h -9.144 v 7.66176 h -9.144 v -7.66176 h -9.144 v 7.66176 h -9.14399 v -7.66176 h -9.14401 v 7.66176 h -9.143995 v 4.24794 h 4.27048 v 6.03437 h -4.27048 v 10.44068 z m 0,-199.205712 v -4.18852 h 2.83539 v 11.86727 h -5.50664 v 4.79921 h 9.143995 v -7.69336 h 9.14401 v 7.69336 h 9.14399 v -7.69336 h 9.144 v 7.69336 h 9.144 v -7.69336 h 9.144 v -33.16935 h -9.144 v 7.66176 h -9.144 v -7.66176 h -9.144 v 7.66176 h -9.14399 v -7.66176 h -9.14401 v 7.66176 h -9.143995 v 4.24794 h 4.27048 v 6.03437 h -4.27048 v 10.44068 z m 0,66.401912 v -4.18853 h 2.83539 v 11.86728 h -5.50664 v 4.79921 h 9.143995 v -7.69336 h 9.14401 v 7.69336 h 9.14399 v -7.69336 h 9.144 v 7.69336 h 9.144 v -7.69336 h 9.144 v -33.16936 h -9.144 v 7.66176 h -9.144 v -7.66176 h -9.144 v 7.66176 h -9.14399 v -7.66176 h -9.14401 v 7.66176 h -9.143995 v 4.24794 h 4.27048 v 6.03437 h -4.27048 v 10.44069 z m 0,-33.200964 v -4.18852 h 2.83539 V 103.9403 h -5.50664 v 4.79921 h 9.143995 v -7.69336 h 9.14401 v 7.69336 h 9.14399 v -7.69336 h 9.144 v 7.69336 h 9.144 v -7.69336 h 9.144 V 67.876798 h -9.144 v 7.66176 h -9.144 v -7.66176 h -9.144 v 7.66176 h -9.14399 v -7.66176 h -9.14401 v 7.66176 h -9.143995 v 4.24794 h 4.27048 v 6.03437 h -4.27048 v 10.440678 z m 0,132.803814 v -4.18852 h 2.83539 v 11.86727 h -5.50664 v 4.79921 h 9.143995 v -7.69336 h 9.14401 v 7.69336 h 9.14399 v -7.69336 h 9.144 v 7.69336 h 9.144 v -7.69336 h 9.144 v -33.16935 h -9.144 v 7.66176 h -9.144 v -7.66176 h -9.144 v 7.66176 h -9.14399 v -7.66176 h -9.14401 v 7.66176 h -9.143995 v 4.24794 h 4.27048 v 6.03437 h -4.27048 v 10.44068 z m 0,-66.4019 v -4.18852 h 2.83539 v 11.86727 h -5.50664 v 4.79921 h 9.143995 v -7.69335 h 9.14401 v 7.69335 h 9.14399 v -7.69335 h 9.144 v 7.69335 h 9.144 v -7.69335 h 9.144 v -33.16936 h -9.144 v 7.66176 h -9.144 v -7.66176 h -9.144 v 7.66176 h -9.14399 v -7.66176 h -9.14401 v 7.66176 h -9.143995 v 4.24794 h 4.27048 v 6.03437 h -4.27048 v 10.44068 z m 0,-132.772212 v -4.18852 h 2.83539 v 11.86727 h -5.50664 v 4.79921 h 9.143995 v -7.69336 h 9.14401 v 7.69336 h 9.14399 v -7.69336 h 9.144 v 7.69336 h 9.144 v -7.69336 h 9.144 V 1.5065004 h -9.144 v 7.66176 h -9.144 v -7.66176 h -9.144 v 7.66176 h -9.14399 v -7.66176 h -9.14401 v 7.66176 H 91.666705 V 13.4162 h 4.27048 v 6.034368 h -4.27048 v 10.44068 z"
       inkscape:connector-curvature="0" />
  </g>
</svg>
