<?xml version="1.0" encoding="UTF-8" standalone="no"?>
<!-- Created with Inkscape (http://www.inkscape.org/) -->

<svg
   xmlns:dc="http://purl.org/dc/elements/1.1/"
   xmlns:cc="http://creativecommons.org/ns#"
   xmlns:rdf="http://www.w3.org/1999/02/22-rdf-syntax-ns#"
   xmlns:svg="http://www.w3.org/2000/svg"
   xmlns="http://www.w3.org/2000/svg"
   xmlns:sodipodi="http://sodipodi.sourceforge.net/DTD/sodipodi-0.dtd"
   xmlns:inkscape="http://www.inkscape.org/namespaces/inkscape"
   width="210mm"
   height="297mm"
   viewBox="0 0 210 297"
   version="1.1"
   id="svg9226"
   inkscape:version="0.92.4 (5da689c313, 2019-01-14)"
   sodipodi:docname="tilter1.svg">
  <defs
     id="defs9220" />
  <sodipodi:namedview
     id="base"
     pagecolor="#ffffff"
     bordercolor="#666666"
     borderopacity="1.0"
     inkscape:pageopacity="0.0"
     inkscape:pageshadow="2"
     inkscape:zoom="0.35"
     inkscape:cx="400"
     inkscape:cy="560"
     inkscape:document-units="mm"
     inkscape:current-layer="layer1"
     showgrid="false"
     inkscape:window-width="1920"
     inkscape:window-height="1001"
     inkscape:window-x="-9"
     inkscape:window-y="-9"
     inkscape:window-maximized="1" />
  <metadata
     id="metadata9223">
    <rdf:RDF>
      <cc:Work
         rdf:about="">
        <dc:format>image/svg+xml</dc:format>
        <dc:type
           rdf:resource="http://purl.org/dc/dcmitype/StillImage" />
        <dc:title></dc:title>
      </cc:Work>
    </rdf:RDF>
  </metadata>
  <g
     inkscape:label="Layer 1"
     inkscape:groupmode="layer"
     id="layer1">
    <path
       style="fill:none;fill-opacity:1;stroke:#ff0001;stroke-width:0.29148176;stroke-miterlimit:4;stroke-dasharray:none;stroke-opacity:1"
       d="m -30.45149,-60.724245 v 12.7 h 2.0066 v 12.7 h -2.0066 v 12.7 h 2.0066 v 12.7000002 h -2.0066 v 12.7 h 2.0066 V 15.475755 h -2.0066 v 12.7 h 2.0066 v 12.7 h -2.0066 v 12.7 h 2.0066 v 12.7 h -2.0066 v 12.700001 h 2.0066 v 12.7 h -2.0066 v 12.700004 h 2.0066 v 12.7 h -2.0066 v 12.7 h 2.0066 v 12.7 h -2.0066 v 12.7 h 2.0066 v 12.7 h -2.0066 v 12.7 h 2.0066 v 12.70001 h -2.0066 v 12.7 h 2.0066 v 12.7 h -2.0066 v 12.7 h 2.0066 v 12.7 h -2.0066 v 12.7 h 2.0066 v 12.7 h -2.0066 v 12.7 h 2.0066 v 12.7 h -2.0066 v 12.7 h 2.0066 v 12.7 h -2.0066 v 12.7 h 2.0066 v 12.7 h -2.0066 v 12.7 h 2.0066 v 12.41732 h -29.45195 v -12.7 h -2.0066 v -12.7 h 2.0066 v -12.7 h -2.0066 v -12.7 h 2.0066 v -12.7 h -2.0066 v -12.7 h 2.0066 v -12.7 h -2.0066 v -12.7 h 2.0066 v -12.7 h -2.0066 v -12.7 h 2.0066 v -12.7 h -2.0066 v -12.7 h 2.0066 v -12.7 h -2.0066 V 192.9931 h 2.0066 v -12.7 h -2.0066 v -12.7 h 2.0066 v -12.70001 h -2.0066 v -12.7 h 2.0066 v -12.7 h -2.0066 v -12.7 h 2.0066 v -12.7 h -2.0066 V 91.393086 h 2.0066 v -12.7 h -2.0066 V 65.993085 h 2.0066 v -12.7 h -2.0066 v -12.7 h 2.0066 v -12.7 h -2.0066 v -12.7 h 2.0066 V 2.4930852 h -2.0066 V -10.206915 h 2.0066 v -12.7 h -2.0066 v -12.7 h 2.0066 v -12.7 h -2.0066 v -12.41733 z"
       id="rect10"
       inkscape:connector-curvature="0" />
    <path
       style="fill:none;fill-opacity:1;stroke:#ff0001;stroke-width:0.26199999;stroke-miterlimit:4;stroke-dasharray:none;stroke-opacity:1"
       d="m -21.4431,-60.992175 v 12.7 h 2.0066 v 12.7 h -2.0066 v 12.7 h 2.0066 v 12.7 h -2.0066 V 2.5078252 h 2.0066 V 15.207825 h -2.0066 v 12.7 h 2.0066 v 12.7 h -2.0066 v 12.7 h 2.0066 v 12.7 h -2.0066 v 12.700001 h 2.0066 v 12.7 h -2.0066 v 12.700004 h 2.0066 v 12.7 h -2.0066 v 12.7 h 2.0066 v 12.7 h -2.0066 v 12.70001 h 2.0066 v 12.7 h -2.0066 v 12.7 h 2.0066 v 12.7 h -2.0066 v 12.69999 h 2.0066 v 12.7 h -2.0066 v 12.7 h 2.0066 v 12.7 h -2.0066 v 12.7 h 2.0066 v 12.7 h -2.0066 v 12.7 h 2.0066 v 12.7 h -2.0066 v 12.7 h 2.0066 v 12.7 h -2.0066 v 12.7 h 2.0066 v 12.7 h -2.0066 v 12.7 h 2.0066 v 12.7 h 8.15351 v -12.7 h -2.0066 v -12.7 h 2.0066 v -12.7 h -2.0066 v -12.7 h 2.0066 v -12.7 h -2.0066 v -12.7 h 2.0066 v -12.7 h -2.0066 v -12.7 h 2.0066 v -12.7 h -2.0066 v -12.7 h 2.0066 v -12.7 h -2.0066 v -12.7 h 2.0066 v -12.7 h -2.0066 v -12.69999 h 2.0066 v -12.7 h -2.0066 v -12.7 h 2.0066 v -12.7 h -2.0066 v -12.70001 h 2.0066 v -12.7 h -2.0066 v -12.7 h 2.0066 v -12.7 h -2.0066 V 91.407826 h 2.0066 v -12.7 h -2.0066 V 66.007825 h 2.0066 v -12.7 h -2.0066 v -12.7 h 2.0066 v -12.7 h -2.0066 v -12.7 h 2.0066 V 2.5078252 h -2.0066 V -10.192175 h 2.0066 v -12.7 h -2.0066 v -12.7 h 2.0066 v -12.7 h -2.0066 v -12.7 z"
       id="rect28"
       inkscape:connector-curvature="0" />
    <path
       inkscape:connector-curvature="0"
       style="fill:none;fill-opacity:1;stroke:#ff0001;stroke-width:0.29148176;stroke-miterlimit:4;stroke-dasharray:none;stroke-opacity:1"
       d="m 246.65389,-60.724245 v 12.69999 h -2.0066 v 12.7 h 2.0066 v 12.7 h -2.0066 v 12.7000002 h 2.0066 v 12.7 h -2.0066 V 15.475745 h 2.0066 v 12.7 h -2.0066 v 12.7 h 2.0066 v 12.7 h -2.0066 v 12.7 h 2.0066 v 12.700001 h -2.0066 v 12.7 h 2.0066 v 12.700004 h -2.0066 v 12.7 h 2.0066 v 12.7 h -2.0066 v 12.70001 h 2.0066 v 12.7 h -2.0066 v 12.7 h 2.0066 v 12.7 h -2.0066 v 12.70001 h 2.0066 v 12.7 h -2.0066 v 12.7 h 2.0066 v 12.7 h -2.0066 v 12.7 h 2.0066 v 12.7 h -2.0066 v 12.7 h 2.0066 v 12.7 h -2.0066 v 12.7 h 2.0066 v 12.7 h -2.0066 v 12.7 h 2.0066 v 12.7 h -2.0066 v 12.7 h 2.0066 v 12.7 h -2.0066 v 12.41732 h 29.45196 v -12.7 h 2.00657 v -12.7 h -2.00657 v -12.7 h 2.00657 v -12.7 h -2.00657 v -12.7 h 2.00657 v -12.7 h -2.00657 v -12.7 h 2.00657 v -12.7 h -2.00657 v -12.7 h 2.00657 v -12.7 h -2.00657 v -12.7 h 2.00657 v -12.7 h -2.00657 v -12.7 h 2.00657 v -12.7 h -2.00657 v -12.7 h 2.00657 v -12.7 h -2.00657 v -12.7 h 2.00657 v -12.7 h -2.00657 v -12.70001 h 2.00657 v -12.7 h -2.00657 v -12.7 h 2.00657 V 91.393076 h -2.00657 v -12.7 h 2.00657 V 65.993075 h -2.00657 v -12.7 h 2.00657 v -12.7 h -2.00657 v -12.7 h 2.00657 v -12.7 h -2.00657 V 2.4930752 h 2.00657 V -10.206925 h -2.00657 v -12.7 h 2.00657 v -12.7 h -2.00657 v -12.7 h 2.00657 v -12.41732 z"
       id="rect10-2" />
    <path
       style="fill:none;fill-opacity:1;stroke:#ff0001;stroke-width:0.26199999;stroke-miterlimit:4;stroke-dasharray:none;stroke-opacity:1"
       d="m 237.64551,-60.992165 v 12.7 h -2.0066 v 12.7 h 2.0066 v 12.7 h -2.0066 v 12.7 h 2.0066 V 2.5078352 h -2.0066 V 15.207835 h 2.0066 v 12.69999 h -2.0066 v 12.7 h 2.0066 v 12.7 h -2.0066 v 12.7 h 2.0066 v 12.700001 h -2.0066 v 12.7 h 2.0066 v 12.700004 h -2.0066 v 12.7 h 2.0066 v 12.7 h -2.0066 v 12.7 h 2.0066 v 12.70001 h -2.0066 v 12.7 h 2.0066 v 12.7 h -2.0066 v 12.7 h 2.0066 v 12.69999 h -2.0066 v 12.7 h 2.0066 v 12.7 h -2.0066 v 12.7 h 2.0066 v 12.7 h -2.0066 v 12.7 h 2.0066 v 12.7 h -2.0066 v 12.7 h 2.0066 v 12.7 h -2.0066 v 12.7 h 2.0066 v 12.7 h -2.0066 v 12.7 h 2.0066 v 12.7 h -2.0066 v 12.7 h -8.1535 v -12.7 h 2.0066 v -12.7 h -2.0066 v -12.7 h 2.0066 v -12.7 h -2.0066 v -12.7 h 2.0066 v -12.7 h -2.0066 v -12.7 h 2.0066 v -12.7 h -2.0066 v -12.7 h 2.0066 v -12.7 h -2.0066 v -12.7 h 2.0066 v -12.7 h -2.0066 v -12.7 h 2.0066 v -12.69999 h -2.0066 v -12.7 h 2.0066 v -12.7 h -2.0066 v -12.7 h 2.0066 v -12.70001 h -2.0066 v -12.7 h 2.0066 v -12.7 h -2.0066 v -12.7 h 2.0066 V 91.407826 h -2.0066 v -12.7 h 2.0066 V 66.007825 h -2.0066 v -12.7 h 2.0066 v -12.7 h -2.0066 v -12.7 h 2.0066 v -12.69999 h -2.0066 V 2.5078352 h 2.0066 V -10.192165 h -2.0066 v -12.7 h 2.0066 v -12.7 h -2.0066 v -12.7 h 2.0066 v -12.7 z"
       id="rect28-8"
       inkscape:connector-curvature="0" />
    <path
       inkscape:connector-curvature="0"
       style="fill:none;fill-opacity:1;stroke:#ff0001;stroke-width:0.29148176;stroke-miterlimit:4;stroke-dasharray:none;stroke-opacity:1"
       d="m -2.8424,-60.520505 v 12.69999 H -4.849 v 12.7 h 2.0066 v 12.7 H -4.849 v 12.7000002 h 2.0066 v 12.7 H -4.849 V 15.679485 h 2.0066 v 12.7 H -4.849 v 12.7 h 2.0066 v 12.7 H -4.849 v 12.7 h 2.0066 V 79.179486 H -4.849 v 12.7 h 2.0066 V 104.57949 H -4.849 v 12.7 h 2.0066 v 12.7 H -4.849 v 12.70001 h 2.0066 v 12.7 H -4.849 v 12.7 h 2.0066 v 12.7 H -4.849 v 12.70001 h 2.0066 V 206.1795 H -4.849 v 12.7 h 2.0066 v 12.7 H -4.849 v 12.7 h 2.0066 v 12.7 H -4.849 v 12.7 h 2.0066 v 12.7 H -4.849 v 12.7 h 2.0066 v 12.7 H -4.849 v 12.7 h 2.0066 v 12.7 H -4.849 v 12.7 h 2.0066 v 12.7 H -4.849 v 12.41732 h 29.45195 v -12.7 h 2.00659 v -12.7 h -2.00659 v -12.69997 h 2.00659 v -12.7 h -2.00659 v -12.7 h 2.00659 v -12.7 h -2.00659 v -12.7 h 2.00659 v -12.7 h -2.00659 v -12.70003 h 2.00659 v -12.69997 h -2.00659 v -12.7 h 2.00659 v -12.70003 h -2.00659 v -12.7 h 2.00659 v -12.7 h -2.00659 v -12.7 h 2.00659 v -12.7 h -2.00659 v -12.7 h 2.00659 v -12.7 h -2.00659 v -12.7 h 2.00659 v -12.7 h -2.00659 v -12.7 h 2.00659 V 91.596816 h -2.00659 v -12.7 h 2.00659 V 66.196815 h -2.00659 v -12.7 h 2.00659 v -12.7 h -2.00659 v -12.7 h 2.00659 v -12.7 H 24.60295 V 2.6968152 h 2.00659 V -10.003185 h -2.00659 v -12.7 h 2.00659 v -12.7 h -2.00659 v -12.7 h 2.00659 v -12.41732 z"
       id="rect10-2-6" />
    <path
       style="fill:none;fill-opacity:1;stroke:#ff0001;stroke-width:0.29148176;stroke-miterlimit:4;stroke-dasharray:none;stroke-opacity:1"
       d="m 218.59692,-57.754005 v 12.7 h 2.0066 v 12.7 h -2.0066 v 12.7 h 2.0066 v 12.7000002 h -2.0066 v 12.7 h 2.0066 V 18.445995 h -2.0066 v 12.7 h 2.0066 v 12.70001 h -2.0066 v 12.7 h 2.0066 v 12.7 h -2.0066 v 12.700001 h 2.0066 v 12.7 h -2.0066 v 12.700004 h 2.0066 v 12.7 h -2.0066 v 12.7 h 2.0066 v 12.70001 h -2.0066 v 12.7 h 2.0066 v 12.7 h -2.0066 v 12.7 h 2.0066 v 12.70001 h -2.0066 v 12.69998 h 2.0066 v 12.7 h -2.0066 v 12.7 h 2.0066 v 12.7 h -2.0066 v 12.7 h 2.0066 v 12.7 h -2.0066 v 12.7 h 2.0066 v 12.7 h -2.0066 v 12.7 h 2.0066 v 12.70003 h -2.0066 v 12.7 h 2.0066 v 12.69997 h -2.0066 v 12.7 h 2.0066 v 12.41732 h -29.45195 v -12.7 h -2.0066 v -12.7 h 2.0066 v -12.69997 h -2.0066 v -12.7 h 2.0066 v -12.7 h -2.0066 v -12.7 h 2.0066 v -12.7 h -2.0066 v -12.7 h 2.0066 v -12.7 h -2.0066 v -12.7 h 2.0066 v -12.7 h -2.0066 v -12.70003 h 2.0066 v -12.7 h -2.0066 v -12.69998 h 2.0066 v -12.7 h -2.0066 v -12.7 h 2.0066 v -12.7 h -2.0066 v -12.7 h 2.0066 v -12.70001 h -2.0066 v -12.7 h 2.0066 v -12.7 h -2.0066 V 94.363336 h 2.0066 v -12.7 h -2.0066 V 68.963335 h 2.0066 v -12.7 h -2.0066 v -12.7 h 2.0066 v -12.70001 h -2.0066 v -12.7 h 2.0066 V 5.4633252 h -2.0066 v -12.7 h 2.0066 V -19.936675 h -2.0066 v -12.7 h 2.0066 v -12.7 h -2.0066 v -12.41733 z"
       id="rect10-5"
       inkscape:connector-curvature="0" />
    <g
       id="g1731"
       transform="translate(-120.66004,-78.325145)">
      <path
         id="rect32"
         transform="scale(0.26458333)"
         d="m 584.19336,65.509766 v 48.000004 h -7.58398 v 48 h 7.58398 v 48 h -7.58398 v 48 h 7.58398 v 48 h -7.58398 v 48 h 7.58398 v 48 h -7.58398 v 48 h 7.58398 v 48 h -7.58398 v 48 h 7.58398 v 48 h -7.58398 v 48 h 7.58398 v 48 h -7.58398 v 48 h 7.58398 v 48 h -7.58398 v 48 h 7.58398 v 48 h -7.58398 v 48 h 7.58398 v 48 h -7.58398 v 48.00003 h 7.58398 v 48 h -7.58398 v 48 h 7.58398 v 48 h -7.58398 v 48 h 7.58398 v 48 h -7.58398 v 48 h 7.58398 v 48 h -7.58398 v 48 h 7.58398 v 48 h -7.58398 v 48 h 7.58398 v 48 h -7.58398 v 48 h 7.58398 v 48 h -7.58398 v 48 h 30.33593 v -48 h 7.58399 v 48 h 500.1602 v -48 h 7.5839 v 48 h 30.336 v -48 h -7.584 v -48 h 7.584 v -48 h -7.584 v -48 h 7.584 v -48 h -7.584 v -48 h 7.584 v -48 h -7.584 v -48 h 7.584 v -48 h -7.584 v -48 h 7.584 v -48 h -7.584 v -48 h 7.584 v -48 h -7.584 v -48 h 7.584 v -48.00003 h -7.584 v -48 h 7.584 v -48 h -7.584 v -48 h 7.584 v -48 h -7.584 v -48 h 7.584 v -48 h -7.584 v -48 h 7.584 v -48 h -7.584 v -48 h 7.584 v -48 h -7.584 v -48 h 7.584 v -48 h -7.584 v -48 h 7.584 v -48 h -7.584 v -48 h 7.584 v -48 h -7.584 v -48 h 7.584 v -48 h -7.584 V 65.509766 Z"
         style="fill:none;fill-opacity:1;stroke:#ff0001;stroke-width:0.99023622;stroke-miterlimit:4;stroke-dasharray:none;stroke-opacity:1"
         inkscape:connector-curvature="0" />
      <rect
         y="30.032959"
         x="160.58768"
         height="12.7"
         width="2.0065999"
         id="rect32-90"
         style="fill:none;fill-opacity:1;stroke:#ff0001;stroke-width:0.26199999;stroke-miterlimit:4;stroke-dasharray:none;stroke-opacity:1" />
      <rect
         y="55.432953"
         x="160.58768"
         height="12.7"
         width="2.0065999"
         id="rect32-9-64"
         style="fill:none;fill-opacity:1;stroke:#ff0001;stroke-width:0.26199999;stroke-miterlimit:4;stroke-dasharray:none;stroke-opacity:1" />
      <rect
         y="80.832962"
         x="160.58768"
         height="12.7"
         width="2.0065999"
         id="rect32-9-1-2"
         style="fill:none;fill-opacity:1;stroke:#ff0001;stroke-width:0.26199999;stroke-miterlimit:4;stroke-dasharray:none;stroke-opacity:1" />
      <rect
         y="106.23297"
         x="160.58768"
         height="12.7"
         width="2.0065999"
         id="rect32-9-3-2"
         style="fill:none;fill-opacity:1;stroke:#ff0001;stroke-width:0.26199999;stroke-miterlimit:4;stroke-dasharray:none;stroke-opacity:1" />
      <rect
         y="131.63298"
         x="160.58768"
         height="12.7"
         width="2.0065999"
         id="rect32-9-2-8"
         style="fill:none;fill-opacity:1;stroke:#ff0001;stroke-width:0.26199999;stroke-miterlimit:4;stroke-dasharray:none;stroke-opacity:1" />
      <rect
         y="157.03294"
         x="160.58768"
         height="12.7"
         width="2.0065999"
         id="rect32-9-9-2"
         style="fill:none;fill-opacity:1;stroke:#ff0001;stroke-width:0.26199999;stroke-miterlimit:4;stroke-dasharray:none;stroke-opacity:1" />
      <rect
         y="182.43297"
         x="160.58768"
         height="12.7"
         width="2.0065999"
         id="rect32-9-8-9"
         style="fill:none;fill-opacity:1;stroke:#ff0001;stroke-width:0.26199999;stroke-miterlimit:4;stroke-dasharray:none;stroke-opacity:1" />
      <rect
         y="207.83296"
         x="160.58768"
         height="12.7"
         width="2.0065999"
         id="rect32-9-0-8"
         style="fill:none;fill-opacity:1;stroke:#ff0001;stroke-width:0.26199999;stroke-miterlimit:4;stroke-dasharray:none;stroke-opacity:1" />
      <rect
         y="233.23297"
         x="160.58768"
         height="12.7"
         width="2.0065999"
         id="rect32-9-6-7"
         style="fill:none;fill-opacity:1;stroke:#ff0001;stroke-width:0.26199999;stroke-miterlimit:4;stroke-dasharray:none;stroke-opacity:1" />
      <rect
         y="258.63297"
         x="160.58768"
         height="12.7"
         width="2.0065999"
         id="rect32-9-10-4"
         style="fill:none;fill-opacity:1;stroke:#ff0001;stroke-width:0.26199999;stroke-miterlimit:4;stroke-dasharray:none;stroke-opacity:1" />
      <rect
         y="284.03296"
         x="160.58768"
         height="12.7"
         width="2.0065999"
         id="rect32-9-60-30"
         style="fill:none;fill-opacity:1;stroke:#ff0001;stroke-width:0.26199999;stroke-miterlimit:4;stroke-dasharray:none;stroke-opacity:1" />
      <rect
         y="309.43295"
         x="160.58768"
         height="12.7"
         width="2.0065999"
         id="rect32-9-97-62"
         style="fill:none;fill-opacity:1;stroke:#ff0001;stroke-width:0.26199999;stroke-miterlimit:4;stroke-dasharray:none;stroke-opacity:1" />
      <rect
         y="334.83295"
         x="160.58768"
         height="12.7"
         width="2.0065999"
         id="rect32-9-86-8"
         style="fill:none;fill-opacity:1;stroke:#ff0001;stroke-width:0.26199999;stroke-miterlimit:4;stroke-dasharray:none;stroke-opacity:1" />
      <rect
         y="360.23294"
         x="160.58768"
         height="12.7"
         width="2.0065999"
         id="rect32-9-4-89"
         style="fill:none;fill-opacity:1;stroke:#ff0001;stroke-width:0.26199999;stroke-miterlimit:4;stroke-dasharray:none;stroke-opacity:1" />
      <rect
         y="385.63293"
         x="160.58768"
         height="12.7"
         width="2.0065999"
         id="rect32-9-7-6"
         style="fill:none;fill-opacity:1;stroke:#ff0001;stroke-width:0.26199999;stroke-miterlimit:4;stroke-dasharray:none;stroke-opacity:1" />
      <rect
         y="411.03299"
         x="160.58768"
         height="12.7"
         width="2.0065999"
         id="rect32-9-85-9"
         style="fill:none;fill-opacity:1;stroke:#ff0001;stroke-width:0.26199999;stroke-miterlimit:4;stroke-dasharray:none;stroke-opacity:1" />
      <rect
         transform="scale(-1,1)"
         y="30.032967"
         x="-296.93484"
         height="12.7"
         width="2.0065999"
         id="rect32-90-2"
         style="fill:none;fill-opacity:1;stroke:#ff0001;stroke-width:0.26199999;stroke-miterlimit:4;stroke-dasharray:none;stroke-opacity:1" />
      <rect
         transform="scale(-1,1)"
         y="55.432961"
         x="-296.93484"
         height="12.7"
         width="2.0065999"
         id="rect32-9-64-13"
         style="fill:none;fill-opacity:1;stroke:#ff0001;stroke-width:0.26199999;stroke-miterlimit:4;stroke-dasharray:none;stroke-opacity:1" />
      <rect
         transform="scale(-1,1)"
         y="80.832962"
         x="-296.93484"
         height="12.7"
         width="2.0065999"
         id="rect32-9-1-2-1"
         style="fill:none;fill-opacity:1;stroke:#ff0001;stroke-width:0.26199999;stroke-miterlimit:4;stroke-dasharray:none;stroke-opacity:1" />
      <rect
         transform="scale(-1,1)"
         y="106.23297"
         x="-296.93484"
         height="12.7"
         width="2.0065999"
         id="rect32-9-3-2-4"
         style="fill:none;fill-opacity:1;stroke:#ff0001;stroke-width:0.26199999;stroke-miterlimit:4;stroke-dasharray:none;stroke-opacity:1" />
      <rect
         transform="scale(-1,1)"
         y="131.63298"
         x="-296.93484"
         height="12.7"
         width="2.0065999"
         id="rect32-9-2-8-9"
         style="fill:none;fill-opacity:1;stroke:#ff0001;stroke-width:0.26199999;stroke-miterlimit:4;stroke-dasharray:none;stroke-opacity:1" />
      <rect
         transform="scale(-1,1)"
         y="157.03294"
         x="-296.93484"
         height="12.7"
         width="2.0065999"
         id="rect32-9-9-2-3"
         style="fill:none;fill-opacity:1;stroke:#ff0001;stroke-width:0.26199999;stroke-miterlimit:4;stroke-dasharray:none;stroke-opacity:1" />
      <rect
         transform="scale(-1,1)"
         y="182.43297"
         x="-296.93484"
         height="12.7"
         width="2.0065999"
         id="rect32-9-8-9-5"
         style="fill:none;fill-opacity:1;stroke:#ff0001;stroke-width:0.26199999;stroke-miterlimit:4;stroke-dasharray:none;stroke-opacity:1" />
      <rect
         transform="scale(-1,1)"
         y="207.83296"
         x="-296.93484"
         height="12.7"
         width="2.0065999"
         id="rect32-9-0-8-78"
         style="fill:none;fill-opacity:1;stroke:#ff0001;stroke-width:0.26199999;stroke-miterlimit:4;stroke-dasharray:none;stroke-opacity:1" />
      <rect
         transform="scale(-1,1)"
         y="233.23297"
         x="-296.93484"
         height="12.7"
         width="2.0065999"
         id="rect32-9-6-7-7"
         style="fill:none;fill-opacity:1;stroke:#ff0001;stroke-width:0.26199999;stroke-miterlimit:4;stroke-dasharray:none;stroke-opacity:1" />
      <rect
         transform="scale(-1,1)"
         y="258.633"
         x="-296.93484"
         height="12.7"
         width="2.0065999"
         id="rect32-9-10-4-273"
         style="fill:none;fill-opacity:1;stroke:#ff0001;stroke-width:0.26199999;stroke-miterlimit:4;stroke-dasharray:none;stroke-opacity:1" />
      <rect
         transform="scale(-1,1)"
         y="284.03299"
         x="-296.93484"
         height="12.7"
         width="2.0065999"
         id="rect32-9-60-30-4"
         style="fill:none;fill-opacity:1;stroke:#ff0001;stroke-width:0.26199999;stroke-miterlimit:4;stroke-dasharray:none;stroke-opacity:1" />
      <rect
         transform="scale(-1,1)"
         y="309.43298"
         x="-296.93484"
         height="12.7"
         width="2.0065999"
         id="rect32-9-97-62-3"
         style="fill:none;fill-opacity:1;stroke:#ff0001;stroke-width:0.26199999;stroke-miterlimit:4;stroke-dasharray:none;stroke-opacity:1" />
      <rect
         transform="scale(-1,1)"
         y="334.83298"
         x="-296.93484"
         height="12.7"
         width="2.0065999"
         id="rect32-9-86-8-5"
         style="fill:none;fill-opacity:1;stroke:#ff0001;stroke-width:0.26199999;stroke-miterlimit:4;stroke-dasharray:none;stroke-opacity:1" />
      <rect
         transform="scale(-1,1)"
         y="360.23297"
         x="-296.93484"
         height="12.7"
         width="2.0065999"
         id="rect32-9-4-89-64"
         style="fill:none;fill-opacity:1;stroke:#ff0001;stroke-width:0.26199999;stroke-miterlimit:4;stroke-dasharray:none;stroke-opacity:1" />
      <rect
         transform="scale(-1,1)"
         y="385.63297"
         x="-296.93484"
         height="12.7"
         width="2.0065999"
         id="rect32-9-7-6-0"
         style="fill:none;fill-opacity:1;stroke:#ff0001;stroke-width:0.26199999;stroke-miterlimit:4;stroke-dasharray:none;stroke-opacity:1" />
      <rect
         transform="scale(-1,1)"
         y="411.03302"
         x="-296.93484"
         height="12.7"
         width="2.0065999"
         id="rect32-9-85-9-7"
         style="fill:none;fill-opacity:1;stroke:#ff0001;stroke-width:0.26199999;stroke-miterlimit:4;stroke-dasharray:none;stroke-opacity:1" />
    </g>
  </g>
</svg>
