<?xml version="1.0" encoding="UTF-8" standalone="no"?>
<!-- Created with Inkscape (http://www.inkscape.org/) -->

<svg
   xmlns:dc="http://purl.org/dc/elements/1.1/"
   xmlns:cc="http://creativecommons.org/ns#"
   xmlns:rdf="http://www.w3.org/1999/02/22-rdf-syntax-ns#"
   xmlns:svg="http://www.w3.org/2000/svg"
   xmlns="http://www.w3.org/2000/svg"
   xmlns:sodipodi="http://sodipodi.sourceforge.net/DTD/sodipodi-0.dtd"
   xmlns:inkscape="http://www.inkscape.org/namespaces/inkscape"
   width="210mm"
   height="297mm"
   viewBox="0 0 210 297"
   version="1.1"
   id="svg9226"
   inkscape:version="0.92.4 (5da689c313, 2019-01-14)"
   sodipodi:docname="wonkydonk.svg">
  <defs
     id="defs9220" />
  <sodipodi:namedview
     id="base"
     pagecolor="#ffffff"
     bordercolor="#666666"
     borderopacity="1.0"
     inkscape:pageopacity="0.0"
     inkscape:pageshadow="2"
     inkscape:zoom="0.49497475"
     inkscape:cx="1.0301369"
     inkscape:cy="607.68893"
     inkscape:document-units="mm"
     inkscape:current-layer="layer1"
     showgrid="false"
     inkscape:window-width="1920"
     inkscape:window-height="1001"
     inkscape:window-x="-9"
     inkscape:window-y="-9"
     inkscape:window-maximized="1" />
  <metadata
     id="metadata9223">
    <rdf:RDF>
      <cc:Work
         rdf:about="">
        <dc:format>image/svg+xml</dc:format>
        <dc:type
           rdf:resource="http://purl.org/dc/dcmitype/StillImage" />
        <dc:title></dc:title>
      </cc:Work>
    </rdf:RDF>
  </metadata>
  <g
     inkscape:label="Layer 1"
     inkscape:groupmode="layer"
     id="layer1">
    <path
       style="fill:none;fill-opacity:1;stroke:#ff0001;stroke-width:0.29148176;stroke-miterlimit:4;stroke-dasharray:none;stroke-opacity:1"
       d="m -30.45149,370.79309 v -12.7 h 2.0066 v -12.7 h -2.0066 v -12.7 h 2.0066 v -12.7 h -2.0066 v -12.7 h 2.0066 v -12.7 h -2.0066 v -12.7 h 2.0066 v -12.7 h -2.0066 v -12.7 h 2.0066 v -12.7 h -2.0066 v -12.7 h 2.0066 v -12.7 h -2.0066 v -12.70001 h 2.0066 v -12.7 h -2.0066 v -12.7 h 2.0066 v -12.7 h -2.0066 v -12.7 h 2.0066 v -12.7 h -2.0066 v -12.7 h 2.0066 v -12.70001 h -2.0066 v -12.7 h 2.0066 V 91.393075 h -2.0066 v -12.7 h 2.0066 v -12.7 h -2.0066 v -12.7 h 2.0066 v -12.7 h -2.0066 v -12.7 h 2.0066 v -12.7 h -2.0066 v -12.7 h 2.0066 v -12.7 h -2.0066 v -12.7 h 2.0066 v -12.7 h -2.0066 v -12.7 h 2.0066 v -12.41732 h -29.45195 v 12.7 h -2.0066 v 12.7 h 2.0066 v 12.7 h -2.0066 v 12.7 h 2.0066 v 12.7 h -2.0066 v 12.7 h 2.0066 v 12.7 h -2.0066 v 12.7 h 2.0066 v 12.7 h -2.0066 v 12.7 h 2.0066 v 12.7 h -2.0066 v 12.7 h 2.0066 v 12.699995 h -2.0066 v 12.69999 h 2.0066 v 12.7 h -2.0066 v 12.7 h 2.0066 v 12.70001 h -2.0066 v 12.7 h 2.0066 v 12.7 h -2.0066 v 12.7 h 2.0066 v 12.7 h -2.0066 v 12.70001 h 2.0066 v 12.7 h -2.0066 v 12.7 h 2.0066 v 12.7 h -2.0066 v 12.7 h 2.0066 v 12.7 h -2.0066 v 12.7 h 2.0066 v 12.7 h -2.0066 v 12.7 h 2.0066 v 12.7 h -2.0066 v 12.7 h 2.0066 v 12.7 h -2.0066 v 12.41733 z"
       id="rect10"
       inkscape:connector-curvature="0" />
    <path
       style="fill:none;fill-opacity:1;stroke:#ff0000;stroke-width:0.99009508;stroke-miterlimit:4;stroke-dasharray:none;stroke-opacity:1"
       d="M 144.49414 -221.97461 L 144.49414 -173.97461 L 134.99023 -173.97461 L 134.99023 -125.97461 L 144.49414 -125.97461 L 144.49414 -77.974609 L 135.01758 -77.974609 L 135.01758 -29.974609 L 144.49414 -29.974609 L 144.49414 18.025391 L 135.01758 18.025391 L 135.01758 66.025391 L 144.49414 66.025391 L 144.49414 114.02539 L 135.01758 114.02539 L 135.01758 162.02539 L 144.49414 162.02539 L 144.49414 210.02539 L 135.01758 210.02539 L 135.01758 258.02539 L 144.49414 258.02539 L 144.49414 306.02539 L 135.01758 306.02539 L 135.01758 354.02539 L 144.49414 354.02539 L 144.49414 402.02539 L 135.01758 402.02539 L 135.01758 450.02539 L 144.49414 450.02539 L 144.49414 498.02539 L 135.01758 498.02539 L 135.01758 546.02539 L 144.49414 546.02539 L 144.49414 594.02539 L 135.01758 594.02539 L 135.01758 642.02539 L 144.49414 642.02539 L 144.49414 690.02539 L 135.01758 690.02539 L 135.01758 738.02539 L 144.49414 738.02539 L 144.49414 786.02539 L 135.01758 786.02539 L 135.01758 834.02539 L 144.49414 834.02539 L 144.49414 882.02539 L 135.01758 882.02539 L 135.01758 930.02539 L 144.49414 930.02539 L 144.49414 978.02539 L 135.01758 978.02539 L 135.01758 1026.0254 L 144.61914 1026.0254 L 240.4668 1026.0254 L 240.4668 978.02539 L 250.02734 978.02539 L 250.02734 930.02539 L 240.4668 930.02539 L 240.4668 882.02539 L 250.02734 882.02539 L 250.02734 834.02539 L 240.4668 834.02539 L 240.4668 786.02539 L 250.02734 786.02539 L 250.02734 738.02539 L 240.4668 738.02539 L 240.4668 690.02539 L 250.02734 690.02539 L 250.02734 642.02539 L 240.4668 642.02539 L 240.4668 594.02539 L 250.02734 594.02539 L 250.02734 546.02539 L 240.4668 546.02539 L 240.4668 498.02539 L 250.02734 498.02539 L 250.02734 450.02539 L 240.4668 450.02539 L 240.4668 402.02539 L 250.02734 402.02539 L 250.02734 354.02539 L 240.4668 354.02539 L 240.4668 306.02539 L 250.02734 306.02539 L 250.02734 258.02539 L 240.4668 258.02539 L 240.4668 210.02539 L 250.02734 210.02539 L 250.02734 162.02539 L 240.4668 162.02539 L 240.4668 114.02539 L 250.02734 114.02539 L 250.02734 66.025391 L 240.4668 66.025391 L 240.4668 18.025391 L 250.02734 18.025391 L 250.02734 -29.974609 L 240.4668 -29.974609 L 240.4668 -77.974609 L 250.02734 -77.974609 L 250.02734 -125.97461 L 240.4668 -125.97461 L 240.4668 -173.97461 L 249.99609 -173.97461 L 249.99609 -221.97461 L 240.4668 -221.97461 L 240.39844 -221.97461 L 144.49414 -221.97461 z "
       transform="scale(0.26458333)"
       id="rect4608" />
  </g>
</svg>
